# xmcd
#
# Track frame offsets:
#	183
#	16580
#	33318
#	47098
#	54445
#	66738
#	81953
#	96993
#	108950
#	125633
#	137718
#	149623
#	161938
#	174548
#	188648
#	198923
#
# Disc length: 2897 seconds
#
# Revision: 0
# Processed by: cddbd v1.4PL0 Copyright (c) Steve Scherf et al.
# Submitted via: EasyCDDAExtractor 5.0.2.1
#
DISCID=e70b4f10
DTITLE=D'lloyd - 16 Pilihan Terbaik D'lloyd
DYEAR=1996
DGENRE=Slow Rock
TTITLE0=Cinta Hampa
TTITLE1=Kerana Nenek
TTITLE2=Kau Salahkan Sendiri
TTITLE3=Harta Karun
TTITLE4=Jangan Kau Lupa
TTITLE5=Keagungan Tuhan
TTITLE6=Sendiri Lagi
TTITLE7=Diriku Jadi Korban
TTITLE8=Keluhan Dan Rintihan
TTITLE9=Semalam Di Malaya
TTITLE10=Jalur Cinta
TTITLE11=Cinta
TTITLE12=Tak Mungkin
TTITLE13=Malam Penuh Kenangan
TTITLE14=Sayang-Sayang
TTITLE15=Mengapa Harus Jumpa
EXTD=
EXTT0=
EXTT1=
EXTT2=
EXTT3=
EXTT4=
EXTT5=
EXTT6=
EXTT7=
EXTT8=
EXTT9=
EXTT10=
EXTT11=
EXTT12=
EXTT13=
EXTT14=
EXTT15=
PLAYORDER=
